<?xml version="1.0" standalone="no"?>
<!DOCTYPE svg PUBLIC "-//W3C//DTD SVG 20010904//EN"
 "http://www.w3.org/TR/2001/REC-SVG-20010904/DTD/svg10.dtd">
<svg version="1.0" xmlns="http://www.w3.org/2000/svg"
 width="920.000000pt" height="980.000000pt" viewBox="0 0 920.000000 980.000000"
 preserveAspectRatio="xMidYMid meet">

<g transform="translate(0.000000,980.000000) scale(0.100000,-0.100000)"
fill="#000000" stroke="none">
<path d="M1268 9738 c-159 -162 -339 -393 -473 -607 -304 -485 -501 -1044
-581 -1643 -24 -183 -29 -591 -10 -793 44 -460 148 -860 332 -1275 172 -388
384 -711 692 -1053 l105 -117 141 137 c78 75 156 151 175 169 l35 33 -65 68
c-534 567 -849 1261 -930 2048 -18 173 -15 550 5 720 34 286 114 614 207 847
148 373 376 753 614 1023 168 191 169 167 -23 358 -82 81 -152 147 -155 147
-4 0 -35 -28 -69 -62z"/>
<path d="M7701 9616 c-90 -90 -164 -165 -165 -168 -1 -3 44 -56 98 -117 143
-161 195 -228 305 -391 317 -472 499 -965 573 -1550 17 -139 17 -610 0 -750
-64 -505 -207 -939 -448 -1356 -116 -202 -245 -379 -433 -597 -101 -117 -102
-119 -84 -139 10 -11 88 -87 173 -168 l155 -148 103 118 c591 675 913 1392
1014 2255 17 146 17 664 0 810 -60 507 -203 980 -427 1412 -138 266 -272 472
-440 673 -105 127 -244 280 -254 280 -4 0 -81 -74 -170 -164z"/>
<path d="M2123 8894 c-269 -284 -506 -703 -617 -1090 -86 -299 -113 -517 -102
-834 12 -390 56 -621 173 -920 127 -323 303 -605 553 -888 l55 -62 167 167
c93 92 168 171 168 174 0 3 -41 55 -90 115 -321 385 -490 776 -541 1252 -15
140 -7 449 15 586 37 231 90 398 196 611 101 204 234 407 344 522 l85 90 -168
166 c-92 92 -171 167 -176 167 -5 0 -33 -25 -62 -56z"/>
<path d="M6929 8844 c-51 -50 -128 -126 -170 -169 l-77 -80 79 -90 c287 -325
488 -766 544 -1193 32 -242 12 -597 -46 -837 -85 -348 -220 -613 -468 -920
l-113 -140 168 -163 169 -163 68 73 c260 279 449 597 581 976 45 130 101 358
118 482 17 131 17 632 -1 775 -36 295 -159 663 -313 938 -94 169 -267 407
-398 550 l-46 50 -95 -89z"/>
<path d="M2964 8028 c-179 -214 -298 -472 -346 -753 -26 -154 -21 -410 10
-546 40 -170 129 -388 215 -524 39 -63 147 -204 176 -229 l22 -20 164 164 c91
91 165 167 165 170 0 3 -29 46 -65 95 -227 315 -282 640 -168 983 44 133 108
244 217 377 l25 30 -169 163 c-93 89 -173 162 -177 162 -5 0 -36 -33 -69 -72z"/>
<path d="M5992 7915 l-163 -165 60 -80 c187 -249 274 -554 227 -803 -38 -202
-127 -393 -251 -538 l-45 -53 167 -168 c92 -92 170 -168 174 -168 11 0 144
161 192 233 249 373 313 895 166 1342 -39 119 -109 259 -176 352 -53 75 -172
213 -183 213 -3 0 -79 -74 -168 -165z"/>
<path d="M4474 7749 c-150 -17 -310 -84 -431 -181 -223 -177 -343 -416 -343
-683 0 -113 27 -259 64 -350 l33 -83 -607 -2448 c-877 -3536 -950 -3831 -950
-3848 0 -9 10 -22 23 -30 20 -13 467 -130 472 -124 2 2 27 99 57 217 l53 214
310 210 c817 552 1276 854 1367 898 l48 23 277 -186 c479 -321 1377 -930 1391
-943 8 -7 34 -100 59 -206 25 -107 50 -200 56 -207 13 -17 28 -15 290 49 149
37 207 55 207 65 0 27 -551 2264 -1228 4984 l-308 1235 48 110 c71 165 90 246
91 395 1 194 -47 354 -153 510 -178 262 -512 415 -826 379z m61 -1746 c117 -3
180 0 235 10 148 30 129 -21 -87 -236 l-139 -137 -161 140 c-89 77 -164 147
-167 155 -3 8 0 39 6 69 l10 54 72 -25 c62 -23 92 -26 231 -30z m443 -460 c27
-94 82 -320 82 -338 0 -11 -69 41 -196 149 l-126 108 93 94 c52 52 99 94 105
94 6 0 25 -48 42 -107z m-743 20 c43 -38 89 -77 103 -88 l24 -21 -73 -70
c-110 -106 -269 -247 -273 -243 -5 7 91 412 107 452 9 20 20 37 25 37 5 0 44
-30 87 -67z m400 -357 c155 -131 378 -329 457 -405 73 -69 91 -93 104 -136 16
-48 15 -54 -1 -88 -10 -22 -57 -72 -114 -120 -135 -118 -509 -417 -520 -417
-21 0 -691 541 -691 558 0 7 411 417 587 586 61 58 97 85 105 80 7 -4 40 -30
73 -58z m-712 -1004 c115 -86 413 -327 421 -340 6 -10 -800 -669 -809 -660 -6
6 248 1049 261 1070 10 15 24 8 127 -70z m1396 -44 c65 -232 223 -889 216
-896 -13 -13 -745 583 -745 607 0 5 82 76 183 159 100 83 207 171 237 196 30
25 60 45 66 45 7 1 26 -50 43 -111z m-397 -755 c676 -542 758 -617 758 -695 0
-22 -14 -38 -77 -86 -205 -155 -1029 -716 -1053 -716 -8 0 -161 98 -340 219
-562 378 -810 555 -810 578 0 25 187 192 525 468 502 409 619 499 651 499 8 0
163 -120 346 -267z m921 -1348 c86 -339 279 -1130 292 -1193 7 -33 6 -33 -17
-21 -94 49 -1318 882 -1318 897 0 4 48 41 107 82 132 93 847 578 849 576 1 0
40 -154 87 -341z m-2145 98 c523 -352 614 -415 605 -423 -16 -14 -1020 -687
-1183 -793 -138 -91 -165 -105 -168 -89 -6 35 182 785 315 1262 36 129 68 243
70 253 3 9 9 17 14 17 6 0 161 -102 347 -227z"/>
</g>
</svg>
